<?xml version="1.0" encoding="UTF-8" standalone="no"?>
<!DOCTYPE svg PUBLIC "-//W3C//DTD SVG 1.1//EN"
 "http://www.w3.org/Graphics/SVG/1.1/DTD/svg11.dtd">
<!-- Generated by graphviz version 2.38.0 (20140413.2041)
 -->
<!-- Title: controllers_diagram Pages: 1 -->
<svg width="579pt" height="649pt"
 viewBox="0.00 0.00 579.00 649.00" xmlns="http://www.w3.org/2000/svg" xmlns:xlink="http://www.w3.org/1999/xlink">
<g id="graph0" class="graph" transform="scale(1 1) rotate(0) translate(259 390.5)">
<title>controllers_diagram</title>
<polygon fill="none" stroke="none" points="-259,258.5 -259,-390.5 320,-390.5 320,258.5 -259,258.5"/>
<!-- _diagram_info -->
<g id="node1" class="node"><title>_diagram_info</title>
<text text-anchor="start" x="110" y="157.4" font-family="Times,serif" font-size="13.00">Controllers diagram</text>
<text text-anchor="start" x="110" y="171.4" font-family="Times,serif" font-size="13.00">Date: Jun 08 2016 &#45; 09:58</text>
<text text-anchor="start" x="110" y="185.4" font-family="Times,serif" font-size="13.00">Migration version: 20160607023941</text>
<text text-anchor="start" x="110" y="199.4" font-family="Times,serif" font-size="13.00">Generated by RailRoady 1.4.2</text>
<text text-anchor="start" x="110" y="213.4" font-family="Times,serif" font-size="13.00">http://railroady.prestonlee.com</text>
</g>
<!-- DeliveryController -->
<g id="node2" class="node"><title>DeliveryController</title>
<path fill="none" stroke="black" d="M165.5,-154C165.5,-154 260.5,-154 260.5,-154 266.5,-154 272.5,-160 272.5,-166 272.5,-166 272.5,-340 272.5,-340 272.5,-346 266.5,-352 260.5,-352 260.5,-352 165.5,-352 165.5,-352 159.5,-352 153.5,-346 153.5,-340 153.5,-340 153.5,-166 153.5,-166 153.5,-160 159.5,-154 165.5,-154"/>
<text text-anchor="middle" x="213" y="-336.8" font-family="Times,serif" font-size="14.00">DeliveryController</text>
<polyline fill="none" stroke="black" points="153.5,-329 272.5,-329 "/>
<text text-anchor="start" x="161.5" y="-313.8" font-family="Times,serif" font-size="14.00">create</text>
<text text-anchor="start" x="161.5" y="-298.8" font-family="Times,serif" font-size="14.00">destroy</text>
<text text-anchor="start" x="161.5" y="-283.8" font-family="Times,serif" font-size="14.00">edit</text>
<text text-anchor="start" x="161.5" y="-268.8" font-family="Times,serif" font-size="14.00">index</text>
<text text-anchor="start" x="161.5" y="-253.8" font-family="Times,serif" font-size="14.00">new</text>
<text text-anchor="start" x="161.5" y="-238.8" font-family="Times,serif" font-size="14.00">update</text>
<polyline fill="none" stroke="black" points="153.5,-231 272.5,-231 "/>
<polyline fill="none" stroke="black" points="153.5,-207 272.5,-207 "/>
<text text-anchor="start" x="161.5" y="-191.8" font-family="Times,serif" font-size="14.00">_layout</text>
<text text-anchor="start" x="161.5" y="-176.8" font-family="Times,serif" font-size="14.00">order_params</text>
<text text-anchor="start" x="161.5" y="-161.8" font-family="Times,serif" font-size="14.00">set_order</text>
</g>
<!-- ApplicationController -->
<g id="node3" class="node"><title>ApplicationController</title>
<path fill="none" stroke="black" d="M-243,-52C-243,-52 -131,-52 -131,-52 -125,-52 -119,-58 -119,-64 -119,-64 -119,-134 -119,-134 -119,-140 -125,-146 -131,-146 -131,-146 -243,-146 -243,-146 -249,-146 -255,-140 -255,-134 -255,-134 -255,-64 -255,-64 -255,-58 -249,-52 -243,-52"/>
<text text-anchor="middle" x="-187" y="-130.8" font-family="Times,serif" font-size="14.00">ApplicationController</text>
<polyline fill="none" stroke="black" points="-255,-123 -119,-123 "/>
<polyline fill="none" stroke="black" points="-255,-99 -119,-99 "/>
<polyline fill="none" stroke="black" points="-255,-75 -119,-75 "/>
<text text-anchor="start" x="-247" y="-59.8" font-family="Times,serif" font-size="14.00">_layout</text>
</g>
<!-- OrdersController -->
<g id="node4" class="node"><title>OrdersController</title>
<path fill="none" stroke="black" d="M-174.5,-188C-174.5,-188 -89.5,-188 -89.5,-188 -83.5,-188 -77.5,-194 -77.5,-200 -77.5,-200 -77.5,-374 -77.5,-374 -77.5,-380 -83.5,-386 -89.5,-386 -89.5,-386 -174.5,-386 -174.5,-386 -180.5,-386 -186.5,-380 -186.5,-374 -186.5,-374 -186.5,-200 -186.5,-200 -186.5,-194 -180.5,-188 -174.5,-188"/>
<text text-anchor="middle" x="-132" y="-370.8" font-family="Times,serif" font-size="14.00">OrdersController</text>
<polyline fill="none" stroke="black" points="-186.5,-363 -77.5,-363 "/>
<text text-anchor="start" x="-178.5" y="-347.8" font-family="Times,serif" font-size="14.00">create</text>
<text text-anchor="start" x="-178.5" y="-332.8" font-family="Times,serif" font-size="14.00">destroy</text>
<text text-anchor="start" x="-178.5" y="-317.8" font-family="Times,serif" font-size="14.00">edit</text>
<text text-anchor="start" x="-178.5" y="-302.8" font-family="Times,serif" font-size="14.00">index</text>
<text text-anchor="start" x="-178.5" y="-287.8" font-family="Times,serif" font-size="14.00">new</text>
<text text-anchor="start" x="-178.5" y="-272.8" font-family="Times,serif" font-size="14.00">update</text>
<polyline fill="none" stroke="black" points="-186.5,-265 -77.5,-265 "/>
<polyline fill="none" stroke="black" points="-186.5,-241 -77.5,-241 "/>
<text text-anchor="start" x="-178.5" y="-225.8" font-family="Times,serif" font-size="14.00">_layout</text>
<text text-anchor="start" x="-178.5" y="-210.8" font-family="Times,serif" font-size="14.00">order_params</text>
<text text-anchor="start" x="-178.5" y="-195.8" font-family="Times,serif" font-size="14.00">set_order</text>
</g>
<!-- AdminController -->
<g id="node5" class="node"><title>AdminController</title>
<path fill="none" stroke="black" d="M-73,254C-73,254 13,254 13,254 19,254 25,248 25,242 25,242 25,172 25,172 25,166 19,160 13,160 13,160 -73,160 -73,160 -79,160 -85,166 -85,172 -85,172 -85,242 -85,242 -85,248 -79,254 -73,254"/>
<text text-anchor="middle" x="-30" y="175.2" font-family="Times,serif" font-size="14.00">AdminController</text>
<polyline fill="none" stroke="black" points="-85,183 25,183 "/>
<polyline fill="none" stroke="black" points="-85,207 25,207 "/>
<polyline fill="none" stroke="black" points="-85,231 25,231 "/>
<text text-anchor="start" x="-77" y="246.2" font-family="Times,serif" font-size="14.00">_layout</text>
</g>
<!-- AboutUsController -->
<g id="node6" class="node"><title>AboutUsController</title>
<path fill="none" stroke="black" d="M-226.5,84.5C-226.5,84.5 -129.5,84.5 -129.5,84.5 -123.5,84.5 -117.5,78.5 -117.5,72.5 -117.5,72.5 -117.5,3.5 -117.5,3.5 -117.5,-2.5 -123.5,-8.5 -129.5,-8.5 -129.5,-8.5 -226.5,-8.5 -226.5,-8.5 -232.5,-8.5 -238.5,-2.5 -238.5,3.5 -238.5,3.5 -238.5,72.5 -238.5,72.5 -238.5,78.5 -232.5,84.5 -226.5,84.5"/>
<text text-anchor="middle" x="-178" y="6.7" font-family="Times,serif" font-size="14.00">AboutUsController</text>
<polyline fill="none" stroke="black" points="-238.5,14.5 -117.5,14.5 "/>
<text text-anchor="start" x="-230.5" y="29.7" font-family="Times,serif" font-size="14.00">index</text>
<polyline fill="none" stroke="black" points="-238.5,37.5 -117.5,37.5 "/>
<polyline fill="none" stroke="black" points="-238.5,61.5 -117.5,61.5 "/>
<text text-anchor="start" x="-230.5" y="76.7" font-family="Times,serif" font-size="14.00">_layout</text>
</g>
<!-- CardapioController -->
<g id="node7" class="node"><title>CardapioController</title>
<path fill="none" stroke="black" d="M-39,-136.5C-39,-136.5 59,-136.5 59,-136.5 65,-136.5 71,-142.5 71,-148.5 71,-148.5 71,-337.5 71,-337.5 71,-343.5 65,-349.5 59,-349.5 59,-349.5 -39,-349.5 -39,-349.5 -45,-349.5 -51,-343.5 -51,-337.5 -51,-337.5 -51,-148.5 -51,-148.5 -51,-142.5 -45,-136.5 -39,-136.5"/>
<text text-anchor="middle" x="10" y="-334.3" font-family="Times,serif" font-size="14.00">CardapioController</text>
<polyline fill="none" stroke="black" points="-51,-326.5 71,-326.5 "/>
<text text-anchor="start" x="-43" y="-311.3" font-family="Times,serif" font-size="14.00">create</text>
<text text-anchor="start" x="-43" y="-296.3" font-family="Times,serif" font-size="14.00">destroy</text>
<text text-anchor="start" x="-43" y="-281.3" font-family="Times,serif" font-size="14.00">edit</text>
<text text-anchor="start" x="-43" y="-266.3" font-family="Times,serif" font-size="14.00">index</text>
<text text-anchor="start" x="-43" y="-251.3" font-family="Times,serif" font-size="14.00">new</text>
<text text-anchor="start" x="-43" y="-236.3" font-family="Times,serif" font-size="14.00">show</text>
<text text-anchor="start" x="-43" y="-221.3" font-family="Times,serif" font-size="14.00">update</text>
<polyline fill="none" stroke="black" points="-51,-213.5 71,-213.5 "/>
<polyline fill="none" stroke="black" points="-51,-189.5 71,-189.5 "/>
<text text-anchor="start" x="-43" y="-174.3" font-family="Times,serif" font-size="14.00">_layout</text>
<text text-anchor="start" x="-43" y="-159.3" font-family="Times,serif" font-size="14.00">pizza_params</text>
<text text-anchor="start" x="-43" y="-144.3" font-family="Times,serif" font-size="14.00">set_pizza</text>
</g>
<!-- WelcomeController -->
<g id="node8" class="node"><title>WelcomeController</title>
<path fill="none" stroke="black" d="M-226.5,220.5C-226.5,220.5 -125.5,220.5 -125.5,220.5 -119.5,220.5 -113.5,214.5 -113.5,208.5 -113.5,208.5 -113.5,139.5 -113.5,139.5 -113.5,133.5 -119.5,127.5 -125.5,127.5 -125.5,127.5 -226.5,127.5 -226.5,127.5 -232.5,127.5 -238.5,133.5 -238.5,139.5 -238.5,139.5 -238.5,208.5 -238.5,208.5 -238.5,214.5 -232.5,220.5 -226.5,220.5"/>
<text text-anchor="middle" x="-176" y="142.7" font-family="Times,serif" font-size="14.00">WelcomeController</text>
<polyline fill="none" stroke="black" points="-238.5,150.5 -113.5,150.5 "/>
<text text-anchor="start" x="-230.5" y="165.7" font-family="Times,serif" font-size="14.00">index</text>
<polyline fill="none" stroke="black" points="-238.5,173.5 -113.5,173.5 "/>
<polyline fill="none" stroke="black" points="-238.5,197.5 -113.5,197.5 "/>
<text text-anchor="start" x="-230.5" y="212.7" font-family="Times,serif" font-size="14.00">_layout</text>
</g>
<!-- Admin::SizesController -->
<g id="node9" class="node"><title>Admin::SizesController</title>
<path fill="none" stroke="black" d="M-73,118.5C-73,118.5 49,118.5 49,118.5 55,118.5 61,112.5 61,106.5 61,106.5 61,-82.5 61,-82.5 61,-88.5 55,-94.5 49,-94.5 49,-94.5 -73,-94.5 -73,-94.5 -79,-94.5 -85,-88.5 -85,-82.5 -85,-82.5 -85,106.5 -85,106.5 -85,112.5 -79,118.5 -73,118.5"/>
<text text-anchor="middle" x="-12" y="-79.3" font-family="Times,serif" font-size="14.00">Admin::SizesController</text>
<polyline fill="none" stroke="black" points="-85,-71.5 61,-71.5 "/>
<text text-anchor="start" x="-77" y="-56.3" font-family="Times,serif" font-size="14.00">create</text>
<text text-anchor="start" x="-77" y="-41.3" font-family="Times,serif" font-size="14.00">destroy</text>
<text text-anchor="start" x="-77" y="-26.3" font-family="Times,serif" font-size="14.00">edit</text>
<text text-anchor="start" x="-77" y="-11.3" font-family="Times,serif" font-size="14.00">index</text>
<text text-anchor="start" x="-77" y="3.7" font-family="Times,serif" font-size="14.00">new</text>
<text text-anchor="start" x="-77" y="18.7" font-family="Times,serif" font-size="14.00">show</text>
<text text-anchor="start" x="-77" y="33.7" font-family="Times,serif" font-size="14.00">update</text>
<polyline fill="none" stroke="black" points="-85,41.5 61,41.5 "/>
<polyline fill="none" stroke="black" points="-85,65.5 61,65.5 "/>
<text text-anchor="start" x="-77" y="80.7" font-family="Times,serif" font-size="14.00">_layout</text>
<text text-anchor="start" x="-77" y="95.7" font-family="Times,serif" font-size="14.00">set_size</text>
<text text-anchor="start" x="-77" y="110.7" font-family="Times,serif" font-size="14.00">size_params</text>
</g>
<!-- Admin::PizzasController -->
<g id="node10" class="node"><title>Admin::PizzasController</title>
<path fill="none" stroke="black" d="M114,101.5C114,101.5 242,101.5 242,101.5 248,101.5 254,95.5 254,89.5 254,89.5 254,-99.5 254,-99.5 254,-105.5 248,-111.5 242,-111.5 242,-111.5 114,-111.5 114,-111.5 108,-111.5 102,-105.5 102,-99.5 102,-99.5 102,89.5 102,89.5 102,95.5 108,101.5 114,101.5"/>
<text text-anchor="middle" x="178" y="-96.3" font-family="Times,serif" font-size="14.00">Admin::PizzasController</text>
<polyline fill="none" stroke="black" points="102,-88.5 254,-88.5 "/>
<text text-anchor="start" x="110" y="-73.3" font-family="Times,serif" font-size="14.00">create</text>
<text text-anchor="start" x="110" y="-58.3" font-family="Times,serif" font-size="14.00">destroy</text>
<text text-anchor="start" x="110" y="-43.3" font-family="Times,serif" font-size="14.00">edit</text>
<text text-anchor="start" x="110" y="-28.3" font-family="Times,serif" font-size="14.00">index</text>
<text text-anchor="start" x="110" y="-13.3" font-family="Times,serif" font-size="14.00">new</text>
<text text-anchor="start" x="110" y="1.7" font-family="Times,serif" font-size="14.00">show</text>
<text text-anchor="start" x="110" y="16.7" font-family="Times,serif" font-size="14.00">update</text>
<polyline fill="none" stroke="black" points="102,24.5 254,24.5 "/>
<polyline fill="none" stroke="black" points="102,48.5 254,48.5 "/>
<text text-anchor="start" x="110" y="63.7" font-family="Times,serif" font-size="14.00">_layout</text>
<text text-anchor="start" x="110" y="78.7" font-family="Times,serif" font-size="14.00">pizza_params</text>
<text text-anchor="start" x="110" y="93.7" font-family="Times,serif" font-size="14.00">set_pizza</text>
</g>
</g>
</svg>
