<?xml version="1.0" encoding="UTF-8" standalone="no"?>
<!DOCTYPE svg PUBLIC "-//W3C//DTD SVG 1.1//EN"
 "http://www.w3.org/Graphics/SVG/1.1/DTD/svg11.dtd">
<!-- Generated by graphviz version 2.38.0 (20140413.2041)
 -->
<!-- Title: models_diagram Pages: 1 -->
<svg width="911pt" height="235pt"
 viewBox="0.00 0.00 911.50 235.00" xmlns="http://www.w3.org/2000/svg" xmlns:xlink="http://www.w3.org/1999/xlink">
<g id="graph0" class="graph" transform="scale(1 1) rotate(0) translate(4 231)">
<title>models_diagram</title>
<polygon fill="none" stroke="none" points="-4,4 -4,-231 907.5,-231 907.5,4 -4,4"/>
<!-- _diagram_info -->
<g id="node1" class="node"><title>_diagram_info</title>
<text text-anchor="start" x="8" y="-138.1" font-family="Times,serif" font-size="13.00">Models diagram</text>
<text text-anchor="start" x="8" y="-124.1" font-family="Times,serif" font-size="13.00">Date: Jun 08 2016 &#45; 09:58</text>
<text text-anchor="start" x="8" y="-110.1" font-family="Times,serif" font-size="13.00">Migration version: 20160607023941</text>
<text text-anchor="start" x="8" y="-96.1" font-family="Times,serif" font-size="13.00">Generated by RailRoady 1.4.2</text>
<text text-anchor="start" x="8" y="-82.1" font-family="Times,serif" font-size="13.00">http://railroady.prestonlee.com</text>
</g>
<!-- Pizza -->
<g id="node2" class="node"><title>Pizza</title>
<path fill="none" stroke="black" d="M244.5,-45.5C244.5,-45.5 351.5,-45.5 351.5,-45.5 357.5,-45.5 363.5,-51.5 363.5,-57.5 363.5,-57.5 363.5,-169.5 363.5,-169.5 363.5,-175.5 357.5,-181.5 351.5,-181.5 351.5,-181.5 244.5,-181.5 244.5,-181.5 238.5,-181.5 232.5,-175.5 232.5,-169.5 232.5,-169.5 232.5,-57.5 232.5,-57.5 232.5,-51.5 238.5,-45.5 244.5,-45.5"/>
<text text-anchor="middle" x="298" y="-166.3" font-family="Times,serif" font-size="14.00">Pizza</text>
<polyline fill="none" stroke="black" points="232.5,-158.5 363.5,-158.5 "/>
<text text-anchor="start" x="240.5" y="-143.3" font-family="Times,serif" font-size="14.00">id :int(11)</text>
<text text-anchor="start" x="240.5" y="-128.3" font-family="Times,serif" font-size="14.00">name :varchar(255)</text>
<text text-anchor="start" x="240.5" y="-113.3" font-family="Times,serif" font-size="14.00">description :text</text>
<text text-anchor="start" x="240.5" y="-98.3" font-family="Times,serif" font-size="14.00">price :float</text>
<text text-anchor="start" x="240.5" y="-83.3" font-family="Times,serif" font-size="14.00">created_at :datetime</text>
<text text-anchor="start" x="240.5" y="-68.3" font-family="Times,serif" font-size="14.00">updated_at :datetime</text>
<text text-anchor="start" x="240.5" y="-53.3" font-family="Times,serif" font-size="14.00">image :varchar(255)</text>
</g>
<!-- Size -->
<g id="node3" class="node"><title>Size</title>
<path fill="none" stroke="black" d="M394,-60.5C394,-60.5 510,-60.5 510,-60.5 516,-60.5 522,-66.5 522,-72.5 522,-72.5 522,-154.5 522,-154.5 522,-160.5 516,-166.5 510,-166.5 510,-166.5 394,-166.5 394,-166.5 388,-166.5 382,-160.5 382,-154.5 382,-154.5 382,-72.5 382,-72.5 382,-66.5 388,-60.5 394,-60.5"/>
<text text-anchor="middle" x="452" y="-151.3" font-family="Times,serif" font-size="14.00">Size</text>
<polyline fill="none" stroke="black" points="382,-143.5 522,-143.5 "/>
<text text-anchor="start" x="390" y="-128.3" font-family="Times,serif" font-size="14.00">id :int(11)</text>
<text text-anchor="start" x="390" y="-113.3" font-family="Times,serif" font-size="14.00">name :varchar(255)</text>
<text text-anchor="start" x="390" y="-98.3" font-family="Times,serif" font-size="14.00">slices_number :int(11)</text>
<text text-anchor="start" x="390" y="-83.3" font-family="Times,serif" font-size="14.00">created_at :datetime</text>
<text text-anchor="start" x="390" y="-68.3" font-family="Times,serif" font-size="14.00">updated_at :datetime</text>
</g>
<!-- User -->
<g id="node4" class="node"><title>User</title>
<path fill="none" stroke="black" d="M552,-0.5C552,-0.5 742,-0.5 742,-0.5 748,-0.5 754,-6.5 754,-12.5 754,-12.5 754,-214.5 754,-214.5 754,-220.5 748,-226.5 742,-226.5 742,-226.5 552,-226.5 552,-226.5 546,-226.5 540,-220.5 540,-214.5 540,-214.5 540,-12.5 540,-12.5 540,-6.5 546,-0.5 552,-0.5"/>
<text text-anchor="middle" x="647" y="-211.3" font-family="Times,serif" font-size="14.00">User</text>
<polyline fill="none" stroke="black" points="540,-203.5 754,-203.5 "/>
<text text-anchor="start" x="548" y="-188.3" font-family="Times,serif" font-size="14.00">id :int(11)</text>
<text text-anchor="start" x="548" y="-173.3" font-family="Times,serif" font-size="14.00">email :varchar(255)</text>
<text text-anchor="start" x="548" y="-158.3" font-family="Times,serif" font-size="14.00">encrypted_password :varchar(255)</text>
<text text-anchor="start" x="548" y="-143.3" font-family="Times,serif" font-size="14.00">reset_password_token :varchar(255)</text>
<text text-anchor="start" x="548" y="-128.3" font-family="Times,serif" font-size="14.00">reset_password_sent_at :datetime</text>
<text text-anchor="start" x="548" y="-113.3" font-family="Times,serif" font-size="14.00">remember_created_at :datetime</text>
<text text-anchor="start" x="548" y="-98.3" font-family="Times,serif" font-size="14.00">sign_in_count :int(11)</text>
<text text-anchor="start" x="548" y="-83.3" font-family="Times,serif" font-size="14.00">current_sign_in_at :datetime</text>
<text text-anchor="start" x="548" y="-68.3" font-family="Times,serif" font-size="14.00">last_sign_in_at :datetime</text>
<text text-anchor="start" x="548" y="-53.3" font-family="Times,serif" font-size="14.00">current_sign_in_ip :varchar(255)</text>
<text text-anchor="start" x="548" y="-38.3" font-family="Times,serif" font-size="14.00">last_sign_in_ip :varchar(255)</text>
<text text-anchor="start" x="548" y="-23.3" font-family="Times,serif" font-size="14.00">created_at :datetime</text>
<text text-anchor="start" x="548" y="-8.3" font-family="Times,serif" font-size="14.00">updated_at :datetime</text>
</g>
<!-- Order -->
<g id="node5" class="node"><title>Order</title>
<path fill="none" stroke="black" d="M784.5,-60.5C784.5,-60.5 891.5,-60.5 891.5,-60.5 897.5,-60.5 903.5,-66.5 903.5,-72.5 903.5,-72.5 903.5,-154.5 903.5,-154.5 903.5,-160.5 897.5,-166.5 891.5,-166.5 891.5,-166.5 784.5,-166.5 784.5,-166.5 778.5,-166.5 772.5,-160.5 772.5,-154.5 772.5,-154.5 772.5,-72.5 772.5,-72.5 772.5,-66.5 778.5,-60.5 784.5,-60.5"/>
<text text-anchor="middle" x="838" y="-151.3" font-family="Times,serif" font-size="14.00">Order</text>
<polyline fill="none" stroke="black" points="772.5,-143.5 903.5,-143.5 "/>
<text text-anchor="start" x="780.5" y="-128.3" font-family="Times,serif" font-size="14.00">id :int(11)</text>
<text text-anchor="start" x="780.5" y="-113.3" font-family="Times,serif" font-size="14.00">border :tinyint(1)</text>
<text text-anchor="start" x="780.5" y="-98.3" font-family="Times,serif" font-size="14.00">size_id :int(11)</text>
<text text-anchor="start" x="780.5" y="-83.3" font-family="Times,serif" font-size="14.00">created_at :datetime</text>
<text text-anchor="start" x="780.5" y="-68.3" font-family="Times,serif" font-size="14.00">updated_at :datetime</text>
</g>
</g>
</svg>
